<svg xmlns="http://www.w3.org/2000/svg" width="400" height="400">
  <rect width="400" height="400" fill="#060D20"></rect>
  
  <circle cx="23" cy="15" r="0.8" fill="white" opacity="0.7"></circle>
  <circle cx="87" cy="42" r="0.5" fill="white" opacity="0.5"></circle>
  <circle cx="145" cy="8" r="1" fill="white" opacity="0.8"></circle>
  <circle cx="198" cy="55" r="0.6" fill="white" opacity="0.6"></circle>
  <circle cx="267" cy="22" r="0.9" fill="white" opacity="0.75"></circle>
  <circle cx="312" cy="68" r="0.5" fill="white" opacity="0.4"></circle>
  <circle cx="378" cy="11" r="0.7" fill="white" opacity="0.65"></circle>
  <circle cx="55" cy="95" r="1.2" fill="white" opacity="0.9"></circle>
  <circle cx="112" cy="110" r="0.5" fill="white" opacity="0.5"></circle>
  <circle cx="178" cy="88" r="0.8" fill="white" opacity="0.7"></circle>
  <circle cx="234" cy="130" r="0.6" fill="white" opacity="0.55"></circle>
  <circle cx="289" cy="102" r="1" fill="white" opacity="0.8"></circle>
  <circle cx="345" cy="145" r="0.7" fill="white" opacity="0.6"></circle>
  <circle cx="395" cy="98" r="0.5" fill="white" opacity="0.45"></circle>
  <circle cx="18" cy="175" r="0.9" fill="white" opacity="0.72"></circle>
  <circle cx="73" cy="158" r="0.6" fill="white" opacity="0.58"></circle>
  <circle cx="130" cy="195" r="1.1" fill="#F5C842" opacity="0.5"></circle>
  <circle cx="195" cy="170" r="0.7" fill="white" opacity="0.65"></circle>
  <circle cx="258" cy="185" r="0.5" fill="white" opacity="0.48"></circle>
  <circle cx="325" cy="162" r="0.8" fill="white" opacity="0.7"></circle>
  <circle cx="372" cy="200" r="1" fill="white" opacity="0.82"></circle>
  <circle cx="42" cy="240" r="0.6" fill="white" opacity="0.55"></circle>
  <circle cx="100" cy="258" r="0.8" fill="#F5C842" opacity="0.45"></circle>
  <circle cx="165" cy="225" r="1.2" fill="white" opacity="0.85"></circle>
  <circle cx="218" cy="265" r="0.5" fill="white" opacity="0.5"></circle>
  <circle cx="278" cy="242" r="0.7" fill="white" opacity="0.63"></circle>
  <circle cx="338" cy="280" r="0.9" fill="white" opacity="0.74"></circle>
  <circle cx="388" cy="248" r="0.6" fill="white" opacity="0.52"></circle>
  <circle cx="28" cy="318" r="1" fill="white" opacity="0.8"></circle>
  <circle cx="82" cy="302" r="0.5" fill="white" opacity="0.46"></circle>
  <circle cx="148" cy="335" r="0.8" fill="white" opacity="0.68"></circle>
  <circle cx="205" cy="312" r="0.6" fill="#E8890C" opacity="0.4"></circle>
  <circle cx="262" cy="355" r="1.1" fill="white" opacity="0.88"></circle>
  <circle cx="318" cy="328" r="0.7" fill="white" opacity="0.62"></circle>
  <circle cx="375" cy="368" r="0.5" fill="white" opacity="0.5"></circle>
  <circle cx="60" cy="380" r="0.9" fill="white" opacity="0.73"></circle>
  <circle cx="120" cy="395" r="0.6" fill="white" opacity="0.56"></circle>
  <circle cx="185" cy="378" r="0.8" fill="white" opacity="0.69"></circle>
  <circle cx="242" cy="395" r="1" fill="white" opacity="0.83"></circle>
  <circle cx="305" cy="382" r="0.5" fill="white" opacity="0.47"></circle>
  <circle cx="358" cy="392" r="0.7" fill="#F5C842" opacity="0.42"></circle>
</svg>